<mxfile host="65bd71144e">
    <diagram id="3CGOplF_25yKbEWaD3JT" name="ca">
        <mxGraphModel dx="1271" dy="697" grid="0" gridSize="10" guides="1" tooltips="1" connect="1" arrows="1" fold="1" page="1" pageScale="1" pageWidth="850" pageHeight="1100" math="0" shadow="0">
            <root>
                <mxCell id="0"/>
                <mxCell id="1" parent="0"/>
                <mxCell id="2" value="Admin" style="shape=umlActor;verticalLabelPosition=bottom;verticalAlign=top;html=1;" parent="1" vertex="1">
                    <mxGeometry x="60" y="202" width="30" height="60" as="geometry"/>
                </mxCell>
                <mxCell id="4" value="Quản lý nhân viên" style="ellipse;whiteSpace=wrap;html=1;" parent="1" vertex="1">
                    <mxGeometry x="308" y="53" width="140" height="70" as="geometry"/>
                </mxCell>
                <mxCell id="5" value="Quản lý phòng khám" style="ellipse;whiteSpace=wrap;html=1;" parent="1" vertex="1">
                    <mxGeometry x="306" y="134" width="140" height="70" as="geometry"/>
                </mxCell>
                <mxCell id="6" value="Quản lý bệnh nhân" style="ellipse;whiteSpace=wrap;html=1;" parent="1" vertex="1">
                    <mxGeometry x="308" y="219" width="140" height="70" as="geometry"/>
                </mxCell>
                <mxCell id="23" value="" style="endArrow=none;startArrow=none;endFill=0;startFill=0;endSize=8;html=1;verticalAlign=bottom;labelBackgroundColor=none;strokeWidth=3;exitX=1;exitY=0.3333333333333333;exitDx=0;exitDy=0;exitPerimeter=0;entryX=0;entryY=0.5;entryDx=0;entryDy=0;" parent="1" source="2" target="4" edge="1">
                    <mxGeometry width="160" relative="1" as="geometry">
                        <mxPoint x="113" y="243" as="sourcePoint"/>
                        <mxPoint x="273" y="243" as="targetPoint"/>
                    </mxGeometry>
                </mxCell>
                <mxCell id="24" value="" style="endArrow=none;startArrow=none;endFill=0;startFill=0;endSize=8;html=1;verticalAlign=bottom;labelBackgroundColor=none;strokeWidth=3;exitX=1;exitY=0.3333333333333333;exitDx=0;exitDy=0;exitPerimeter=0;entryX=0;entryY=0.5;entryDx=0;entryDy=0;" parent="1" source="2" target="5" edge="1">
                    <mxGeometry width="160" relative="1" as="geometry">
                        <mxPoint x="113" y="243" as="sourcePoint"/>
                        <mxPoint x="273" y="243" as="targetPoint"/>
                    </mxGeometry>
                </mxCell>
                <mxCell id="25" value="" style="endArrow=none;startArrow=none;endFill=0;startFill=0;endSize=8;html=1;verticalAlign=bottom;labelBackgroundColor=none;strokeWidth=3;exitX=1;exitY=0.3333333333333333;exitDx=0;exitDy=0;exitPerimeter=0;entryX=0;entryY=0.5;entryDx=0;entryDy=0;" parent="1" source="2" target="6" edge="1">
                    <mxGeometry width="160" relative="1" as="geometry">
                        <mxPoint x="113" y="243" as="sourcePoint"/>
                        <mxPoint x="273" y="243" as="targetPoint"/>
                    </mxGeometry>
                </mxCell>
                <mxCell id="26" value="User" style="shape=umlActor;verticalLabelPosition=bottom;verticalAlign=top;html=1;" parent="1" vertex="1">
                    <mxGeometry x="60" y="644" width="30" height="60" as="geometry"/>
                </mxCell>
                <mxCell id="27" value="Đăng nhập &amp;amp; Đăng xuất" style="ellipse;whiteSpace=wrap;html=1;" vertex="1" parent="1">
                    <mxGeometry x="408" y="325" width="140" height="70" as="geometry"/>
                </mxCell>
                <mxCell id="28" value="Cập nhật thông tin cá nhân" style="ellipse;whiteSpace=wrap;html=1;" vertex="1" parent="1">
                    <mxGeometry x="410" y="403" width="140" height="70" as="geometry"/>
                </mxCell>
                <mxCell id="29" value="Đổi mật khẩu tài khoản" style="ellipse;whiteSpace=wrap;html=1;" vertex="1" parent="1">
                    <mxGeometry x="410" y="480" width="140" height="70" as="geometry"/>
                </mxCell>
                <mxCell id="30" value="" style="endArrow=none;startArrow=none;endFill=0;startFill=0;endSize=8;html=1;verticalAlign=bottom;labelBackgroundColor=none;strokeWidth=3;exitX=1;exitY=0.3333333333333333;exitDx=0;exitDy=0;exitPerimeter=0;entryX=0;entryY=0.5;entryDx=0;entryDy=0;" edge="1" parent="1" source="2" target="27">
                    <mxGeometry width="160" relative="1" as="geometry">
                        <mxPoint x="429" y="346" as="sourcePoint"/>
                        <mxPoint x="589" y="346" as="targetPoint"/>
                    </mxGeometry>
                </mxCell>
                <mxCell id="31" value="" style="endArrow=none;startArrow=none;endFill=0;startFill=0;endSize=8;html=1;verticalAlign=bottom;labelBackgroundColor=none;strokeWidth=3;entryX=0;entryY=0.5;entryDx=0;entryDy=0;" edge="1" parent="1" target="28">
                    <mxGeometry width="160" relative="1" as="geometry">
                        <mxPoint x="91" y="221" as="sourcePoint"/>
                        <mxPoint x="418" y="370" as="targetPoint"/>
                    </mxGeometry>
                </mxCell>
                <mxCell id="32" value="" style="endArrow=none;startArrow=none;endFill=0;startFill=0;endSize=8;html=1;verticalAlign=bottom;labelBackgroundColor=none;strokeWidth=3;exitX=1;exitY=0.3333333333333333;exitDx=0;exitDy=0;exitPerimeter=0;entryX=0;entryY=0.529;entryDx=0;entryDy=0;entryPerimeter=0;" edge="1" parent="1" source="2" target="29">
                    <mxGeometry width="160" relative="1" as="geometry">
                        <mxPoint x="110" y="242" as="sourcePoint"/>
                        <mxPoint x="428" y="380" as="targetPoint"/>
                    </mxGeometry>
                </mxCell>
                <mxCell id="33" value="" style="endArrow=none;startArrow=none;endFill=0;startFill=0;endSize=8;html=1;verticalAlign=bottom;labelBackgroundColor=none;strokeWidth=3;exitX=1;exitY=0.3333333333333333;exitDx=0;exitDy=0;exitPerimeter=0;entryX=0;entryY=0.5;entryDx=0;entryDy=0;" edge="1" parent="1" source="26" target="5">
                    <mxGeometry width="160" relative="1" as="geometry">
                        <mxPoint x="429" y="446" as="sourcePoint"/>
                        <mxPoint x="589" y="446" as="targetPoint"/>
                    </mxGeometry>
                </mxCell>
                <mxCell id="34" value="Quản lý lịch hẹn" style="ellipse;whiteSpace=wrap;html=1;" vertex="1" parent="1">
                    <mxGeometry x="316" y="577" width="140" height="70" as="geometry"/>
                </mxCell>
                <mxCell id="35" value="Quản lý bác sĩ" style="ellipse;whiteSpace=wrap;html=1;" vertex="1" parent="1">
                    <mxGeometry x="316" y="658" width="140" height="70" as="geometry"/>
                </mxCell>
                <mxCell id="36" value="Quản lý y tá" style="ellipse;whiteSpace=wrap;html=1;" vertex="1" parent="1">
                    <mxGeometry x="316" y="743" width="140" height="70" as="geometry"/>
                </mxCell>
                <mxCell id="37" value="Quản lý dược sĩ" style="ellipse;whiteSpace=wrap;html=1;" vertex="1" parent="1">
                    <mxGeometry x="320" y="828" width="140" height="70" as="geometry"/>
                </mxCell>
                <mxCell id="38" value="Quản lý thuốc" style="ellipse;whiteSpace=wrap;html=1;" vertex="1" parent="1">
                    <mxGeometry x="323" y="913" width="140" height="70" as="geometry"/>
                </mxCell>
                <mxCell id="39" value="" style="endArrow=none;startArrow=none;endFill=0;startFill=0;endSize=8;html=1;verticalAlign=bottom;labelBackgroundColor=none;strokeWidth=3;exitX=1;exitY=0.3333333333333333;exitDx=0;exitDy=0;exitPerimeter=0;entryX=0;entryY=0.5;entryDx=0;entryDy=0;" edge="1" parent="1" source="26" target="34">
                    <mxGeometry width="160" relative="1" as="geometry">
                        <mxPoint x="450" y="723" as="sourcePoint"/>
                        <mxPoint x="610" y="723" as="targetPoint"/>
                    </mxGeometry>
                </mxCell>
                <mxCell id="40" value="" style="endArrow=none;startArrow=none;endFill=0;startFill=0;endSize=8;html=1;verticalAlign=bottom;labelBackgroundColor=none;strokeWidth=3;entryX=0;entryY=0.5;entryDx=0;entryDy=0;" edge="1" parent="1" target="35">
                    <mxGeometry width="160" relative="1" as="geometry">
                        <mxPoint x="91" y="662" as="sourcePoint"/>
                        <mxPoint x="262" y="722" as="targetPoint"/>
                    </mxGeometry>
                </mxCell>
                <mxCell id="41" value="" style="endArrow=none;startArrow=none;endFill=0;startFill=0;endSize=8;html=1;verticalAlign=bottom;labelBackgroundColor=none;strokeWidth=3;entryX=0;entryY=0.5;entryDx=0;entryDy=0;" edge="1" parent="1" target="36">
                    <mxGeometry width="160" relative="1" as="geometry">
                        <mxPoint x="90" y="662" as="sourcePoint"/>
                        <mxPoint x="315" y="780" as="targetPoint"/>
                    </mxGeometry>
                </mxCell>
                <mxCell id="42" value="" style="endArrow=none;startArrow=none;endFill=0;startFill=0;endSize=8;html=1;verticalAlign=bottom;labelBackgroundColor=none;strokeWidth=3;entryX=0;entryY=0.5;entryDx=0;entryDy=0;" edge="1" parent="1" target="37">
                    <mxGeometry width="160" relative="1" as="geometry">
                        <mxPoint x="90" y="663" as="sourcePoint"/>
                        <mxPoint x="316" y="865" as="targetPoint"/>
                    </mxGeometry>
                </mxCell>
                <mxCell id="43" value="" style="endArrow=none;startArrow=none;endFill=0;startFill=0;endSize=8;html=1;verticalAlign=bottom;labelBackgroundColor=none;strokeWidth=3;entryX=0;entryY=0.5;entryDx=0;entryDy=0;" edge="1" parent="1" target="38">
                    <mxGeometry width="160" relative="1" as="geometry">
                        <mxPoint x="90" y="665" as="sourcePoint"/>
                        <mxPoint x="304" y="932" as="targetPoint"/>
                    </mxGeometry>
                </mxCell>
                <mxCell id="44" value="" style="endArrow=none;startArrow=none;endFill=0;startFill=0;endSize=8;html=1;verticalAlign=bottom;labelBackgroundColor=none;strokeWidth=3;" edge="1" parent="1">
                    <mxGeometry width="160" relative="1" as="geometry">
                        <mxPoint x="90" y="665" as="sourcePoint"/>
                        <mxPoint x="411" y="517" as="targetPoint"/>
                    </mxGeometry>
                </mxCell>
                <mxCell id="45" value="" style="endArrow=none;startArrow=none;endFill=0;startFill=0;endSize=8;html=1;verticalAlign=bottom;labelBackgroundColor=none;strokeWidth=3;entryX=0;entryY=0.5;entryDx=0;entryDy=0;" edge="1" parent="1" target="28">
                    <mxGeometry width="160" relative="1" as="geometry">
                        <mxPoint x="92" y="666" as="sourcePoint"/>
                        <mxPoint x="411" y="546" as="targetPoint"/>
                    </mxGeometry>
                </mxCell>
                <mxCell id="46" value="" style="endArrow=none;startArrow=none;endFill=0;startFill=0;endSize=8;html=1;verticalAlign=bottom;labelBackgroundColor=none;strokeWidth=3;exitX=1;exitY=0.3333333333333333;exitDx=0;exitDy=0;exitPerimeter=0;entryX=0;entryY=0.5;entryDx=0;entryDy=0;" edge="1" parent="1" source="26" target="27">
                    <mxGeometry width="160" relative="1" as="geometry">
                        <mxPoint x="251" y="546" as="sourcePoint"/>
                        <mxPoint x="406" y="361" as="targetPoint"/>
                    </mxGeometry>
                </mxCell>
                <mxCell id="47" value="Patient" style="shape=umlActor;verticalLabelPosition=bottom;verticalAlign=top;html=1;" vertex="1" parent="1">
                    <mxGeometry x="725" y="120" width="30" height="60" as="geometry"/>
                </mxCell>
            </root>
        </mxGraphModel>
    </diagram>
</mxfile>